#!OML:ASF F:\VICON\USERDATA\INSTALL\rory3\rory3.ASF
:FULLY-SPECIFIED
:DEGREES

183
root 4.71537 17.9101 13.2288 -5.59689 -3.19086 0.639385
lowerback 10.6112 0.567039 -1.47989
upperback 0.448541 0.611699 0.653804
thorax -5.50951 0.346661 1.42533
lowerneck -15.6551 -2.9231 -1.72758
upperneck 20.9704 -3.72505 0.37784
head 9.22027 -1.84027 -0.0480218
rclavicle -1.30496e-015 -1.63003e-014
rhumerus -31.4922 -22.5012 -76.5731
rradius 24.8297
rwrist 6.49292
rhand -17.4571 24.1213
rfingers 7.12502
rthumb 8.79429 -5.67545
lclavicle -1.30496e-015 -1.63003e-014
lhumerus -34.86 0.910057 81.6443
lradius 25.3606
lwrist 1.97718
lhand -26.1336 25.7623
lfingers 7.12502
lthumb 0.416741 55.7416
rfemur -22.4562 1.14536 22.6761
rtibia 72.9137
rfoot -4.06829 -6.98594
rtoes 9.54222
lfemur -5.65535 -4.24186 -24.7825
ltibia 29.5553
lfoot -14.4679 0.719512
ltoes 2.78502
184
root 4.71477 17.8964 13.4075 -5.59786 -3.07363 0.945812
lowerback 10.7243 0.506643 -1.81377
upperback 0.321432 0.485538 0.602301
thorax -5.70477 0.295371 1.5785
lowerneck -15.3999 -2.84882 -1.70605
upperneck 20.9441 -3.61085 0.287727
head 9.16051 -1.79674 -0.0638474
rclavicle 9.07343e-015 1.78906e-014
rhumerus -31.8894 -22.4026 -76.4711
rradius 24.6617
rwrist 6.3895
rhand -17.6907 25.2481
rfingers 7.12502
rthumb 8.56882 -4.55803
lclavicle 9.07343e-015 1.78906e-014
lhumerus -35.0112 -0.933901 82.527
lradius 25.1384
lwrist 7.58818
lhand -31.058 14.4565
lfingers 7.12502
lthumb -4.33915 44.3921
rfemur -23.3863 1.05787 22.319
rtibia 71.9436
rfoot -5.46558 -7.00352
rtoes 8.10519
lfemur -4.94022 -4.30315 -25.2528
ltibia 29.5641
lfoot -15.0516 0.886125
ltoes 3.20969
185
root 4.70433 17.8813 13.5856 -5.66035 -2.98422 1.0798
lowerback 10.7169 0.432265 -2.08136
upperback 0.448183 0.356113 0.628832
thorax -5.5638 0.236482 1.77749
lowerneck -15.551 -2.8618 -1.79053
upperneck 20.8146 -3.58904 0.230058
head 9.144 -1.79916 -0.0680734
rclavicle 9.74647e-015 2.10712e-014
rhumerus -31.8932 -22.2864 -76.5753
rradius 24.595
rwrist 6.33467
rhand -17.5954 25.4908
rfingers 7.12502
rthumb 8.66083 -4.31158
lclavicle 9.74647e-015 2.10712e-014
lhumerus -34.3992 -0.523401 81.9208
lradius 25.7179
lwrist 5.10227
lhand -27.222 22.9812
lfingers 7.12502
lthumb -0.634481 52.96
rfemur -24.1447 1.0414 22.2184
rtibia 70.8195
rfoot -6.79429 -7.31022
rtoes 6.51473
lfemur -4.20305 -4.25049 -25.4785
ltibia 29.5585
lfoot -15.6067 1.08187
ltoes 3.12836
186
root 4.69657 17.8545 13.7535 -5.61958 -3.05612 1.03065
lowerback 10.7417 0.380339 -2.08827
upperback 0.535341 0.290622 0.707077
thorax -5.48336 0.203626 1.87342
lowerneck -15.7839 -2.86082 -2.00799
upperneck 20.6939 -3.55149 0.343737
head 9.15158 -1.7852 0.00877094
rclavicle 3.42282e-015 2.18663e-014
rhumerus -31.8895 -22.0255 -76.6765
rradius 24.6348
rwrist 6.18128
rhand -17.186 26.0972
rfingers 7.12502
rthumb 9.05584 -3.68842
lclavicle 3.42282e-015 2.18663e-014
lhumerus -33.7981 -0.458701 81.6666
lradius 26.16
lwrist 4.21753
lhand -24.5196 28.6698
lfingers 7.12502
lthumb 1.97554 58.6404
rfemur -25.1309 1.20513 22.351
rtibia 69.6095
rfoot -7.55823 -7.6957
rtoes 6.06939
lfemur -3.71152 -4.13048 -25.4878
ltibia 29.5101
lfoot -16.0491 1.28574
ltoes 2.12417
187
root 4.69344 17.8319 13.9229 -5.53056 -2.89469 1.03582
lowerback 10.8101 0.252534 -2.14653
upperback 0.489954 0.115524 0.769539
thorax -5.56131 0.121113 1.99897
lowerneck -15.7047 -2.75238 -1.93965
upperneck 20.4461 -3.38172 0.190706
head 9.04508 -1.71789 -0.0302026
rclavicle 8.94376e-015 2.10712e-014
rhumerus -32.0263 -21.9509 -76.6071
rradius 24.533
rwrist 6.24062
rhand -17.2234 25.1511
rfingers 7.12502
rthumb 9.01981 -4.63608
lclavicle 8.94376e-015 2.10712e-014
lhumerus -33.5713 -0.798738 81.6283
lradius 26.7832
lwrist 4.7121
lhand -23.5707 31.4697
lfingers 7.12502
lthumb 2.89197 61.4299
rfemur -26.0912 1.06632 22.3531
rtibia 68.2574
rfoot -8.35543 -8.05682
rtoes 5.27594
lfemur -3.29456 -4.28805 -25.5942
ltibia 29.4284
lfoot -15.9983 1.30351
ltoes 3.50024
188
root 4.69092 17.823 14.0938 -5.45275 -2.65646 1.33301
lowerback 10.7432 0.138072 -2.47872
upperback 0.582791 -0.07877 0.706347
thorax -5.41608 0.0300728 2.14952
lowerneck -15.9089 -2.66875 -1.82175
upperneck 20.247 -3.2649 0.08591
head 9.0084 -1.66471 -0.072079
rclavicle 9.52613e-015 1.41137e-014
rhumerus -32.1672 -21.6328 -76.8414
rradius 24.9571
rwrist 5.99921
rhand -17.435 24.6426
rfingers 7.12502
rthumb 8.81561 -5.15332
lclavicle 9.52613e-015 1.41137e-014
lhumerus -33.2024 -1.33678 81.6397
lradius 27.3963
lwrist 5.69027
lhand -24.5797 29.3472
lfingers 7.12502
lthumb 1.9175 59.3183
rfemur -26.932 0.82542 21.9728
rtibia 66.7284
rfoot -9.69844 -8.47094
rtoes -1.51341
lfemur -2.67611 -4.46847 -26.0235
ltibia 29.3108
lfoot -16.4897 1.40004
ltoes 4.49615
189
root 4.68773 17.8116 14.2624 -5.36634 -2.42864 1.70401
lowerback 10.8362 0.0396922 -2.87288
upperback 0.636242 -0.263598 0.637181
thorax -5.40047 -0.0530046 2.32822
lowerneck -16.3234 -2.64861 -2.08253
upperneck 20.2689 -3.22143 0.355892
head 9.1012 -1.63293 0.0623858
rclavicle 5.48211e-015 1.70955e-014
rhumerus -32.2855 -21.1465 -77.1052
rradius 25.4226
rwrist 5.51611
rhand -17.7277 25.2782
rfingers 7.12502
rthumb 8.53316 -4.5294
lclavicle 5.48211e-015 1.70955e-014
lhumerus -32.8059 -1.92441 81.721
lradius 27.7718
lwrist 6.32185
lhand -26.7598 24.7458
lfingers 7.12502
lthumb -0.188142 54.7254
rfemur -27.7216 0.71531 21.4981
rtibia 65.0366
rfoot -10.5281 -8.9354
rtoes -7.9317
lfemur -1.88555 -4.47417 -26.5146
ltibia 29.0493
lfoot -17.2343 1.5557
ltoes 4.25735
190
root 4.68162 17.7956 14.4356 -5.26036 -2.33932 1.74167
lowerback 11.0578 -0.0309734 -2.89821
upperback 0.538476 -0.368678 0.632157
thorax -5.62104 -0.0991791 2.35613
lowerneck -16.543 -2.67332 -2.22515
upperneck 20.3285 -3.23721 0.459674
head 9.16687 -1.6389 0.115911
rclavicle 5.24605e-015 1.43125e-014
rhumerus -32.5916 -21.4039 -76.944
rradius 25.3955
rwrist 5.71042
rhand -17.8844 23.9377
rfingers 7.12502
rthumb 8.38188 -5.87599
lclavicle 5.24605e-015 1.43125e-014
lhumerus -32.5362 -2.27368 81.5665
lradius 28.1242
lwrist 6.204
lhand -26.1048 26.2113
lfingers 7.12502
lthumb 0.444541 56.1906
rfemur -28.3853 0.757017 21.429
rtibia 63.121
rfoot -10.1428 -9.5132
rtoes -6.01926
lfemur -1.07729 -4.45373 -26.631
ltibia 28.6475
lfoot -17.7437 1.7256
ltoes 3.83814
191
root 4.67595 17.7927 14.6111 -5.23111 -2.32551 1.70751
lowerback 11.1979 -0.0718112 -2.84636
upperback 0.512169 -0.419477 0.65568
thorax -5.7244 -0.123098 2.36119
lowerneck -16.5923 -2.63095 -2.16182
upperneck 20.1783 -3.16729 0.352144
head 9.11988 -1.613 0.0780382
rclavicle -5.30507e-015 7.55382e-015
rhumerus -33.0066 -21.3025 -76.889
rradius 25.6545
rwrist 5.46572
rhand -17.6787 22.6182
rfingers 7.12502
rthumb 8.58038 -7.18743
lclavicle -5.30507e-015 7.55382e-015
lhumerus -32.2408 -2.53497 81.4143
lradius 28.519
lwrist 6.16708
lhand -24.4879 28.3822
lfingers 7.12502
lthumb 2.00612 58.3525
rfemur -28.8031 0.735055 21.4455
rtibia 61.0569
rfoot -9.85303 -10.3269
rtoes -1.55232
lfemur -0.205766 -4.41573 -26.6746
ltibia 28.2275
lfoot -18.0973 1.88151
ltoes 3.49313
